<?xml version="1.0" encoding="UTF-8" standalone="no"?>
<!-- Created with Inkscape (http://www.inkscape.org/) -->

<svg
   width="40mm"
   height="58mm"
   viewBox="0 0 40 58"
   version="1.1"
   id="svg1"
   xml:space="preserve"
   xmlns:inkscape="http://www.inkscape.org/namespaces/inkscape"
   xmlns:sodipodi="http://sodipodi.sourceforge.net/DTD/sodipodi-0.dtd"
   xmlns="http://www.w3.org/2000/svg"
   xmlns:svg="http://www.w3.org/2000/svg"><sodipodi:namedview
     id="namedview1"
     pagecolor="#505050"
     bordercolor="#eeeeee"
     borderopacity="1"
     inkscape:showpageshadow="0"
     inkscape:pageopacity="0"
     inkscape:pagecheckerboard="0"
     inkscape:deskcolor="#505050"
     inkscape:document-units="mm" /><defs
     id="defs1" /><g
     inkscape:label="Layer 1"
     inkscape:groupmode="layer"
     id="layer1"><path
       style="fill:#18316b;fill-opacity:1"
       d="m 6.687834,57.452051 c -0.2919,-0.17027 -0.64808,-1.16532 -1.03097,-2.8802 -0.57041,-2.55478 -0.60544,-2.62396 -1.4061,-2.77692 -0.451607,-0.0863 -1.446185,-0.44796 -2.21017,-0.80375 -1.383991,-0.64451 -1.389062,-0.65137 -1.389062,-1.87798 0,-1.07016 0.06053,-1.20569 0.463021,-1.03667 3.241021,1.361 5.762501,1.79577 10.517191,1.81343 2.35466,0.009 2.82774,-0.0729 4.29881,-0.74196 2.43432,-1.10715 4.30014,-3.28885 4.30014,-5.02814 0,-0.51284 0.17093,-0.63232 1.07887,-0.7541 1.2641,-0.16955 1.95163,-0.72212 2.68404,-2.15719 0.44375,-0.86947 0.51237,-1.40795 0.41525,-3.25841 l -0.11636,-2.21681 0.80433,-0.41594 c 0.91343,-0.47235 2.43535,-0.57057 4.01928,-0.25937 l 1.08021,0.21222 0.44115,-2.00767 c 0.91996,-4.18673 0.4188,-8.73025 -1.37256,-12.44367 -2.5163,-5.21617 -6.64705,-8.84217 -12.20921,-10.71733 -1.95997,-0.6607602 -7.32999,-1.0073602 -9.12812,-0.5891702 l -1.05833,0.24614 1.32291,0.1925102 c 3.98045,0.57924 8.31458,2.2108 10.93704,4.11719 1.18936,0.8646 1.96758,2.22916 2.29937,4.03178 l 0.18135,0.98528 -3.137,-1.57419 c -4.52935,-2.2729 -8.16051,-3.13445 -15.109403,-3.58493 l -2.711979,-0.17582 v -3.12745 -3.1274502 l 1.514515,-0.56665 c 0.832983,-0.31166 1.827887,-0.62933 2.210907,-0.70593 0.64275,-0.12855 0.74068,-0.33764 1.27137,-2.71449 0.31624,-1.41637 0.71436,-2.71459999 0.88472,-2.88495999 0.42456,-0.42456 8.82693,-0.43432 9.08883,-0.0106 0.10169,0.16455 0.43645,1.43320999 0.7439,2.81925999 l 0.55901,2.52008 1.42225,0.48344 1.42225,0.48343 0.95831,-0.76459 c 0.52707,-0.42053 1.3155,-1.14308 1.75206,-1.60567 1.12444,-1.19149 1.60494,-1.40449 2.31511,-1.0263 1.20679,0.64266 6.50447,4.49707 6.62977,4.82359 0.0712,0.18562 -0.34644,1.48267 -0.92814,2.8823402 l -1.05765,2.54485 0.88334,1.14155 c 0.48584,0.62786 0.89609,1.17291 0.91166,1.21123 0.0156,0.0383 1.24502,-0.0687 2.73209,-0.23777 2.26396,-0.25743 2.76034,-0.24725 3.05162,0.0626 0.48164,0.51239 2.87414,7.84524 2.70418,8.28815 -0.0759,0.19783 -1.1579,0.93798 -2.40441,1.64476 l -2.26637,1.28507 -0.002,1.59921 -0.002,1.5992 2.3151,1.31982 c 1.64409,0.93727 2.33903,1.48543 2.39765,1.89123 0.0884,0.61193 -1.97656,7.37193 -2.43594,7.97449 -0.21799,0.28593 -0.85667,0.32336 -3.06995,0.17991 l -2.79471,-0.18113 -0.88132,1.22722 -0.88132,1.22721 1.09616,2.39286 c 0.60288,1.31608 1.03171,2.59589 0.95296,2.84402 -0.21444,0.67565 -6.33173,5.04611 -7.05959,5.04368 -0.38435,-0.001 -1.3377,-0.64133 -2.51327,-1.68733 l -1.89402,-1.68526 -1.35232,0.45781 c -0.74378,0.25179 -1.42378,0.52926 -1.51112,0.61659 -0.0873,0.0873 -0.38439,1.2657 -0.66014,2.61859 -0.31145,1.52807 -0.66937,2.58507 -0.94491,2.79052 -0.54329,0.40509 -8.44088,0.45226 -9.12279,0.0545 z m 2.53974,-10.23538 c -0.27231,-1.81587 0.0693,-9.33494 0.55015,-12.11025 0.5808,-3.35197 1.40477,-5.76526 1.90314,-5.57401 0.21507,0.0825 0.53012,0.15009 0.70012,0.15014 0.21032,6e-5 0.31707,0.7413 0.33406,2.31963 0.0551,5.115 1.81988,8.74195 5.50767,11.31914 0.65943,0.46084 0.74237,0.64889 0.57692,1.30809 -0.10627,0.42344 -0.69189,1.26854 -1.30136,1.87801 -1.37268,1.37269 -3.18074,1.96046 -6.03064,1.96046 h -2.05243 z m -6.571055,0.0645 c -0.570746,-0.20335 -1.40195,-0.73396 -1.84712,-1.17913 L 0,45.292641 l 1.663048,-3.3387 c 2.808646,-5.63858 7.512876,-12.80064 8.407796,-12.80064 0.48982,0 0.46847,0.26045 -0.15,1.82953 -1.31316,3.3315 -2.31071,8.55885 -2.56674,13.45016 l -0.16965,3.24115 -1.74511,-0.0116 c -0.95981,-0.006 -2.212078,-0.17799 -2.782825,-0.38135 z m 17.408035,-4.97018 c -3.34203,-1.01411 -6.50583,-5.9299 -6.86192,-10.66177 l -0.13805,-1.83446 0.50454,1.2298 c 1.62683,3.96534 5.523,6.58696 8.56997,5.76649 1.33742,-0.36013 1.61227,-0.0607 1.41472,1.54108 -0.20703,1.67865 -1.23708,3.50592 -2.26182,4.01238 -0.21991,0.10869 -0.77226,0.0846 -1.22744,-0.0535 z M 0.619908,39.273611 c -0.405455,-1.04204 -0.385614,-4.31264 0.03092,-5.097 0.406112,-0.76474 0.503695,-0.8389 4.434206,-3.36967 3.54646,-2.28349 4.25992,-2.45328 2.77949,-0.66146 -1.63101,1.97409 -3.01478,3.93699 -4.942802,7.01146 -0.981013,1.56435 -1.836545,2.84427 -1.901182,2.84427 -0.06464,0 -0.244923,-0.32742 -0.400632,-0.7276 z m 17.626416,-3.8651 c -2.02233,-0.94593 -4.54525,-3.96032 -4.30909,-5.1485 0.0598,-0.30071 0.30116,-0.0626 0.74359,0.73362 0.84853,1.527 2.40824,2.61109 4.15361,2.887 0.75629,0.11955 1.52867,0.34423 1.7164,0.49929 0.18773,0.15506 0.75804,0.39706 1.26736,0.53778 l 0.92605,0.25586 -0.98369,0.42945 c -1.3153,0.57422 -1.94531,0.53935 -3.51423,-0.1945 z m 0.51402,-2.41394 c -1.37153,-0.58875 -2.045,-1.56806 -2.17755,-3.16639 -0.10043,-1.21104 -0.009,-1.63602 0.56636,-2.61687 0.72543,-1.23784 1.22654,-1.58365 1.9131,-1.32018 0.32492,0.12468 0.34288,0.20789 0.08,0.37039 -0.23438,0.14485 -0.11448,0.26596 0.38822,0.39213 0.54738,0.13738 0.81766,0.0601 1.09246,-0.31255 0.33252,-0.45086 0.29493,-0.50692 -0.4208,-0.62739 -1.11361,-0.18744 -0.98837,-0.61851 0.26396,-0.90856 0.87761,-0.20325 1.0968,-0.38322 1.23543,-1.01437 0.14801,-0.67387 0.25393,-0.74619 0.87023,-0.59407 1.03637,0.2558 1.23945,0.55418 0.94683,1.39116 -0.18061,0.51658 -0.46543,0.75336 -0.9776,0.81268 -0.86599,0.10032 -0.87408,0.18079 -0.18069,1.7984 0.30428,0.70985 0.50738,1.67695 0.46302,2.20475 -0.0677,0.80552 -0.18326,0.95221 -0.80662,1.02394 -0.69194,0.0796 -0.84457,0.29216 -0.74736,1.04076 0.0236,0.1819 -0.0813,0.33073 -0.23323,0.33073 -0.1519,0 -0.27618,0.21901 -0.27618,0.48669 0,0.74008 -1.05522,1.11411 -1.99952,0.70875 z M 0.651532,30.636811 c 0,-2.02859 -0.0097,-2.02242 3.130494,-1.98631 1.938938,0.0223 4.454038,0.39497 3.215268,0.47642 -0.22061,0.0145 -1.6376,0.74075 -3.148867,1.61387 -1.511268,0.87313 -2.848815,1.5875 -2.972327,1.5875 -0.123513,0 -0.224568,-0.76117 -0.224568,-1.69148 z m 15.030792,0.96388 c -0.37325,-0.40018 -0.82251,-1.00685 -0.99836,-1.34815 -0.27422,-0.53222 -0.24116,-0.69373 0.23226,-1.13478 0.55053,-0.5129 0.55199,-0.51232 0.55778,0.22366 0.003,0.40585 0.2355,1.24393 0.51624,1.86239 0.28073,0.61847 0.47898,1.12448 0.44056,1.12448 -0.0384,0 -0.37524,-0.32742 -0.74848,-0.7276 z m -6.37632,-3.12356 c -1.13363,-0.19089 -3.51488,-0.41093 -5.29166,-0.48897 l -3.230521,-0.14191 v -0.86334 c 0,-0.79957 0.07818,-0.87721 1.058334,-1.05103 0.582083,-0.10322 3.190147,-0.19454 5.795697,-0.20292 4.70312,-0.0151 4.73394,-0.0115 4.26384,0.50798 -0.35446,0.39168 -0.43762,0.79081 -0.33076,1.5875 0.0785,0.58535 0.0648,1.04976 -0.0305,1.03202 -0.0953,-0.0177 -1.10078,-0.18844 -2.23441,-0.37933 z m 3.30469,0.0941 c -0.40928,-0.40929 -0.40928,-1.60155 0,-2.01083 0.17463,-0.17463 0.62707,-0.3175 1.00542,-0.3175 0.84366,0 1.32292,0.44365 1.32292,1.22464 0,1.15869 -1.54227,1.88976 -2.32834,1.10369 z m 1.50676,-0.57501 c 0.40915,-0.493 0.0879,-1.22416 -0.53795,-1.22416 -0.64198,0 -0.91939,0.67632 -0.48976,1.194 0.40544,0.48852 0.64155,0.49545 1.02771,0.0302 z m -0.89821,-0.43041 c -0.0899,-0.14552 0.0221,-0.26458 0.24896,-0.26458 0.22687,0 0.41249,0.11906 0.41249,0.26458 0,0.14552 -0.11203,0.26459 -0.24896,0.26459 -0.13694,0 -0.32256,-0.11907 -0.41249,-0.26459 z m 13.76004,-0.46302 c 0.71841,-1.74505 0.1886,-2.6462 -2.28262,-3.8825 -1.04017,-0.52038 -2.02406,-0.94588 -2.18641,-0.94555 -0.19741,4e-4 -0.26615,-0.61127 -0.20754,-1.84664 0.0521,-1.0982 -0.0682,-2.37886 -0.29669,-3.15831 l -0.38433,-1.31108 1.31899,0.51989 c 3.41927,1.34775 5.58231,3.8482 5.93976,6.86629 0.23505,1.98459 -0.77892,4.22092 -1.91378,4.22092 -0.0979,0 -0.0922,-0.20836 0.0126,-0.46302 z m -11.73655,-0.86357 c -0.65342,-0.8838 -1.91638,-1.306 -4.00787,-1.33982 l -1.45521,-0.0235 1.45521,-0.69604 c 1.2172,-0.5822 1.90958,-0.71265 4.23333,-0.79759 1.52797,-0.0558 3.1853,0.005 3.68295,0.1341 l 0.90482,0.23565 -1.56628,0.78243 c -0.91708,0.45813 -1.79747,1.13199 -2.12407,1.62578 l -0.55779,0.84335 z m -14.423706,-1.4552 c -0.23614,-0.61537 -0.208752,-2.71773 0.03739,-2.86985 0.112685,-0.0696 1.392607,0.20581 2.844271,0.61211 1.451665,0.40631 3.495925,0.89086 4.542795,1.07678 1.86656,0.33149 1.89217,0.34679 1.32292,0.79015 -0.45948,0.35786 -1.41428,0.49121 -4.58018,0.6397 -3.579896,0.16791 -4.017275,0.14179 -4.167191,-0.24889 z m 7.539526,-1.87351 c -2.27159,-0.49703 -6.966007,-1.95086 -7.376293,-2.28439 -0.181901,-0.14787 -0.330729,-0.55193 -0.330729,-0.89791 0,-0.83687 0.488982,-0.82207 5.291662,0.16023 2.11006,0.43158 3.914,0.78772 4.00877,0.79144 0.0948,0.004 0.44999,0.45325 0.78938,0.99895 0.3394,0.54571 0.71427,1.14102 0.83304,1.32292 0.28469,0.43602 -0.96861,0.40046 -3.21583,-0.0912 z m 11.21069,-0.13436 c -0.43657,-0.13868 -2.18062,-0.2242 -3.87568,-0.19005 -3.33126,0.0671 -3.63362,-0.0306 -4.34385,-1.40404 -0.4334,-0.8381 -0.5114,-2.6121 -0.11485,-2.6121 0.14552,0 0.26458,0.23625 0.26458,0.52499 0,0.28875 0.34742,0.91383 0.77205,1.38906 0.68307,0.76449 0.92952,0.86407 2.13837,0.86407 1.20886,0 1.4553,-0.0996 2.13837,-0.86407 0.42463,-0.47523 0.77205,-1.15984 0.77205,-1.52135 0,-0.83823 0.14293,-0.8279 2.37892,0.17189 1.73817,0.7772 1.85276,0.88085 1.82804,1.65365 -0.0655,2.04789 -0.47157,2.46015 -1.958,1.98795 z m -6.57358,-2.83796 c -0.60247,-0.66572 -0.55571,-2.04415 0.0913,-2.69114 1.18373,-1.18373 3.175,-0.29679 3.175,1.41419 0,0.52139 -0.19881,1.06496 -0.48385,1.32292 -0.6539,0.59177 -2.22884,0.56575 -2.78243,-0.046 z m 2.68937,-1.85198 c 0.0636,-0.43187 -0.0515,-0.57458 -0.46302,-0.57458 -0.35458,0 -0.54757,0.17095 -0.54757,0.48507 0,1.00584 0.86449,1.08242 1.01059,0.0895 z m -7.22829,1.51588 c -0.43657,-0.13491 -2.27639,-0.54928 -4.08851,-0.92081 -1.812112,-0.37154 -3.38969,-0.7342 -3.505726,-0.80591 -0.116037,-0.0717 -0.210976,-0.37687 -0.210976,-0.67813 0,-0.5203 0.09607,-0.53862 1.918229,-0.36564 1.922403,0.18249 6.988663,1.12299 7.391973,1.37226 0.11814,0.073 0.2148,0.48291 0.2148,0.91088 0,0.84952 -0.28581,0.93051 -1.71979,0.48735 z m 0.79375,-2.38719 c -1.01865,-0.27979 -3.32469,-0.71164 -5.12454,-0.95968 -3.133602,-0.43183 -3.963191,-0.77628 -3.311117,-1.3748 0.495214,-0.45453 7.676127,0.29919 10.455167,1.0974 l 0.96117,0.27607 -0.43201,0.75949 c -0.2376,0.41771 -0.49154,0.7484 -0.5643,0.73486 -0.0728,-0.0135 -0.96573,-0.25355 -1.98437,-0.53334 z"
       id="path1" /></g></svg>
