<?xml version="1.0" encoding="UTF-8" standalone="no"?>
<!-- Created with Inkscape (http://www.inkscape.org/) -->

<svg
   width="78.967003mm"
   height="70.362mm"
   viewBox="0 0 78.967003 70.362"
   version="1.1"
   id="svg1"
   xml:space="preserve"
   inkscape:export-filename="neonguard.png"
   inkscape:export-xdpi="96"
   inkscape:export-ydpi="96"
   xmlns:inkscape="http://www.inkscape.org/namespaces/inkscape"
   xmlns:sodipodi="http://sodipodi.sourceforge.net/DTD/sodipodi-0.dtd"
   xmlns="http://www.w3.org/2000/svg"
   xmlns:svg="http://www.w3.org/2000/svg"><sodipodi:namedview
     id="namedview1"
     pagecolor="#505050"
     bordercolor="#eeeeee"
     borderopacity="1"
     inkscape:showpageshadow="0"
     inkscape:pageopacity="0"
     inkscape:pagecheckerboard="0"
     inkscape:deskcolor="#505050"
     inkscape:document-units="mm"><inkscape:page
       x="0"
       y="0"
       width="78.967003"
       height="70.362"
       id="page2"
       margin="0"
       bleed="0" /></sodipodi:namedview><defs
     id="defs1" /><g
     inkscape:label="Layer 1"
     inkscape:groupmode="layer"
     id="layer1"><path
       style="fill:#1b4a72;fill-opacity:1;stroke-width:0.370324"
       d="m 1.862106,68.70954 v -1.5922 h 0.287703 c 0.260914,0 0.335032,0.0844 0.795997,0.90633 0.279562,0.49848 0.520343,0.92017 0.535069,0.93708 0.01473,0.0169 0.254774,-0.39093 0.5334414,-0.90633 0.462729,-0.85582 0.531576,-0.93708 0.793923,-0.93708 h 0.287257 v 1.55137 c 0,0.85326 -0.02308,1.57446 -0.05129,1.60267 -0.02821,0.0282 -0.163212,0.0299 -0.3,0.004 l -0.248706,-0.0475 0.03055,-1.01643 c 0.0168,-0.55904 0.0072,-1.01634 -0.02145,-1.01623 -0.0286,1.2e-4 -0.215629,0.3309 -0.415619,0.73507 C 3.603,69.91244 3.415278,69.92598 2.909144,69.01539 2.710503,68.658 2.547979,68.32732 2.547979,68.28053 c 0,-0.0468 -0.04742,-0.0851 -0.105366,-0.0851 -0.05795,0 -0.09737,0.12125 -0.0876,0.26945 0.0098,0.1482 0.01309,0.62218 0.0074,1.0533 -0.01017,0.76802 -0.01533,0.78385 -0.255336,0.78385 H 1.862123 Z m 4.6265104,1.48379 c -0.936977,-0.478 -1.144534,-1.93934 -0.381417,-2.68543 0.971239,-0.94956 2.519573,-0.34668 2.672292,1.04053 0.06173,0.56072 -0.223204,1.21996 -0.666999,1.54321 -0.363099,0.26448 -1.201839,0.317 -1.623876,0.10169 z m 1.361406,-0.60778 c 0.249173,-0.22263 0.315831,-0.36782 0.348621,-0.75935 0.04897,-0.58477 -0.0965,-0.89516 -0.541324,-1.15495 -0.457579,-0.26724 -0.952171,-0.13943 -1.269004,0.32793 -0.510292,0.75272 -0.02555,1.86164 0.813784,1.86164 0.234053,0 0.435747,-0.0857 0.647923,-0.27527 z m 1.556662,-0.86823 v -1.59998 h 0.240853 c 0.194646,0 0.3873216,0.20575 1.0043106,1.07245 0.419901,0.58984 0.796526,1.07485 0.836943,1.07779 0.04042,0.003 0.07349,-0.47966 0.07349,-1.07244 v -1.0778 h 0.244954 0.244954 v 1.59998 c 0,1.59622 -5.19e-4,1.59996 -0.220458,1.5922 -0.162501,-0.006 -0.439412,-0.29871 -1.053302,-1.11441 l -0.8328426,-1.10663 -0.04899,1.10663 c -0.04714,1.06483 -0.05732,1.10692 -0.269449,1.11441 -0.219941,0.008 -0.220458,0.004 -0.220458,-1.5922 z m 3.3313706,-0.008 v -1.59219 h 0.244954 0.244954 v 1.59219 1.5922 h -0.244954 -0.244954 z m 2.180089,1.56479 c -0.215932,-0.0345 -0.220458,-0.0622 -0.220458,-1.35114 v -1.31594 h -0.538899 c -0.509503,0 -0.538898,-0.0134 -0.538898,-0.24495 v -0.24495 h 1.322751 1.32275 v 0.24495 c 0,0.23106 -0.03003,0.24495 -0.529372,0.24495 h -0.529374 l -0.01344,1.343 c -0.0074,0.73865 -0.0227,1.34666 -0.03402,1.35114 -0.01132,0.004 -0.119787,-0.008 -0.241039,-0.0271 z m 2.474034,-0.0619 c -0.838695,-0.37276 -1.157935,-1.36053 -0.738406,-2.28471 0.211345,-0.46557 0.629333,-0.76644 1.198347,-0.86257 0.452055,-0.0764 1.184688,0.24498 1.476606,0.64768 0.956495,1.31948 -0.464627,3.1538 -1.936547,2.4996 z m 1.258188,-0.55281 c 0.363329,-0.2858 0.520209,-0.86541 0.369965,-1.36688 -0.142906,-0.47698 -0.495794,-0.73001 -1.018088,-0.73001 -0.310691,0 -0.440063,0.0614 -0.669083,0.31775 -0.241107,0.26985 -0.283918,0.39992 -0.283918,0.86265 0,0.47161 0.03852,0.58341 0.286408,0.8313 0.356054,0.35605 0.923613,0.39283 1.314716,0.0852 z m 1.534286,-0.95007 v -1.59219 h 0.837708 c 0.540907,0 0.93524,0.0504 1.112987,0.14234 0.596635,0.30854 0.643162,1.22153 0.08453,1.65872 l -0.309047,0.24187 0.36168,0.54473 c 0.198924,0.2996 0.361681,0.55643 0.361681,0.57073 0,0.0143 -0.136378,0.026 -0.303061,0.026 -0.263303,0 -0.348679,-0.0739 -0.650806,-0.56339 -0.311688,-0.50498 -0.381863,-0.5634 -0.676755,-0.5634 h -0.32901 v 0.5634 c 0,0.53563 -0.01207,0.56339 -0.244954,0.56339 h -0.244953 z m 1.682465,-0.18665 c 0.239548,-0.21679 0.23362,-0.68365 -0.01034,-0.81421 -0.104237,-0.0558 -0.412879,-0.10143 -0.685871,-0.10143 h -0.496349 v 0.5389 0.5389 h 0.506688 c 0.333979,0 0.567764,-0.0553 0.685872,-0.16216 z m 1.354939,0.18665 2.3e-5,-1.59219 h 1.028806 1.028806 v 0.24495 c 0,0.24087 -0.01306,0.24495 -0.783852,0.24495 h -0.783853 v 0.39193 0.39192 h 0.685871 c 0.666274,0 0.685871,0.007 0.685871,0.24496 0,0.23795 -0.0196,0.24495 -0.685871,0.24495 h -0.685871 v 0.44092 0.44092 h 0.839352 0.839351 l -0.031,0.25268 -0.031,0.25268 -1.053325,0.0168 -1.053324,0.0168 z m 3.470057,1.50192 c -1.185049,-0.51597 -1.188897,-2.41658 -0.0061,-2.98918 0.513272,-0.24847 0.778698,-0.25198 1.295821,-0.0171 0.981667,0.44585 1.273419,1.65292 0.620978,2.56919 -0.371983,0.5224 -1.252309,0.72379 -1.910748,0.4371 z m 1.320211,-0.60149 c 0.355393,-0.29905 0.474461,-0.78919 0.318317,-1.31035 -0.157805,-0.5267 -0.436536,-0.74136 -0.962672,-0.74136 -0.371656,0 -0.482342,0.0489 -0.724574,0.31999 -0.226798,0.25383 -0.285907,0.41183 -0.285907,0.76422 0,0.48558 0.19683,0.95609 0.46541,1.11253 0.323718,0.18855 0.872516,0.12163 1.189426,-0.14503 z m 2.754166,-0.90043 1.67e-4,-1.59219 0.759356,0.002 c 1.364577,0.004 2.024183,0.51684 2.030035,1.57876 0.0033,0.6051 -0.159051,0.92053 -0.671031,1.30349 -0.213129,0.15941 -0.464979,0.21234 -1.194387,0.251 l -0.924306,0.049 z m 1.703772,0.95953 c 0.576057,-0.21901 0.729104,-1.17237 0.270588,-1.68554 -0.244273,-0.27339 -0.355078,-0.31815 -0.881834,-0.35625 l -0.602454,-0.0436 v 1.08957 1.08958 h 0.483532 c 0.265941,0 0.594514,-0.0422 0.730168,-0.0938 z m 2.681067,0.60855 -1.053301,-0.0315 v -1.56438 -1.56439 h 1.028808 1.028804 v 0.24495 c 0,0.24087 -0.01307,0.24495 -0.783854,0.24495 h -0.783849 v 0.39193 0.39193 h 0.734859 c 0.718532,0 0.734863,0.005 0.734863,0.24495 0,0.23951 -0.01633,0.24495 -0.734863,0.24495 h -0.734859 v 0.44092 0.44092 h 0.832843 0.83284 v 0.29396 c 0,0.16167 -0.01104,0.28458 -0.02448,0.27313 -0.01348,-0.0114 -0.498482,-0.035 -1.077798,-0.0523 z m 1.69018,-1.56808 v -1.59219 h 0.244955 0.244954 v 1.32274 1.32276 h 0.783854 0.783849 v 0.26944 0.26945 h -1.028804 -1.028808 z m 4.066234,1.4875 c -0.449932,-0.23342 -0.502007,-0.31712 -0.31416,-0.50496 0.157813,-0.15782 0.183566,-0.15777 0.451836,7.4e-4 0.407075,0.24046 0.9416,0.22002 1.125869,-0.0431 0.219021,-0.3127 0.04596,-0.53602 -0.564521,-0.72846 -0.699972,-0.22065 -0.938042,-0.41765 -1.005259,-0.83188 -0.113708,-0.7007 0.687891,-1.23412 1.46779,-0.97673 0.466378,0.15392 0.631639,0.3601 0.441248,0.55049 -0.126725,0.12672 -0.183303,0.12444 -0.470797,-0.019 -0.454968,-0.22698 -0.838061,-0.0922 -0.838061,0.29477 0,0.25319 0.05677,0.29848 0.636879,0.50812 0.902706,0.32622 1.13928,0.68766 0.886045,1.35371 -0.191517,0.50373 -1.189962,0.72149 -1.816869,0.39627 z m 3.019888,10e-4 c -0.495504,-0.2532 -0.619341,-0.64198 -0.619341,-1.9444 v -1.13647 l 0.269452,-2.3e-4 0.269447,-2.3e-4 -0.03288,0.75339 c -0.04272,0.97901 0.05026,1.56701 0.284893,1.80164 0.250969,0.25098 0.777036,0.24554 1.052261,-0.0109 0.197508,-0.18401 0.214436,-0.2923 0.214436,-1.37175 v -1.17196 h 0.293945 0.293944 l -3.7e-4,1.00431 c -7.41e-4,1.17088 -0.102069,1.61732 -0.439471,1.93429 -0.318708,0.29941 -1.135287,0.37266 -1.586145,0.14228 z m 2.711974,-1.48868 6e-5,-1.59219 h 1.028804 1.028808 v 0.24495 c 0,0.24087 -0.01307,0.24495 -0.783854,0.24495 H 47.12957 v 0.39193 0.39192 h 0.685873 c 0.666272,0 0.68587,0.007 0.68587,0.24496 0,0.23795 -0.01959,0.24495 -0.68587,0.24495 H 47.12957 v 0.44092 0.44092 h 0.832844 c 0.823044,0 0.832843,0.003 0.832843,0.24495 0,0.23811 -0.01985,0.24515 -0.710366,0.25204 -0.390703,0.004 -0.875735,0.0149 -1.077858,0.0245 l -0.367487,0.0174 z m 2.743541,-0.007 v -1.5987 l 0.23423,0.031 c 0.168424,0.0223 0.457476,0.33269 1.028808,1.10477 l 0.794574,1.07377 v -1.09826 -1.09826 h 0.296371 0.296374 l -0.02692,1.58956 c -0.02681,1.58316 -0.02785,1.58957 -0.25112,1.58948 -0.172164,-7e-5 -0.416607,-0.26016 -1.053301,-1.12072 l -0.829104,-1.12064 v 1.12336 1.12335 h -0.244954 -0.244955 z m 4.057924,1.50843 c -1.203412,-0.52396 -1.189828,-2.47624 0.02096,-3.01182 0.986994,-0.4366 1.983788,0.14493 2.150163,1.25441 0.194935,1.29992 -1.000122,2.26726 -2.171116,1.75741 z m 1.120886,-0.49026 c 0.339627,-0.17563 0.504118,-0.5307 0.504118,-1.08821 0,-0.9345 -1.006389,-1.43563 -1.63024,-0.81178 -0.502115,0.50212 -0.383822,1.70933 0.190143,1.94048 0.321041,0.12928 0.633839,0.11576 0.935979,-0.0405 z m 2.933602,-1.00173 -0.02892,-1.60239 0.269451,1.3e-4 0.269448,1.3e-4 v 1.55628 1.55629 l -0.240511,0.046 -0.240511,0.046 z m 1.195831,0.0207 v -1.62285 h 0.236848 c 0.188058,0 0.405035,0.22706 1.053301,1.10229 l 0.816457,1.10229 0.0277,-1.10229 c 0.02763,-1.09907 0.0284,-1.10229 0.269448,-1.10229 h 0.241744 v 1.62717 c 0,1.44352 -0.01748,1.62047 -0.154984,1.56771 -0.08524,-0.0327 -0.195657,-0.0595 -0.24537,-0.0595 -0.04971,0 -0.45395,-0.49524 -0.898313,-1.10053 l -0.807935,-1.10054 -0.04899,1.12503 c -0.04682,1.07521 -0.05875,1.12639 -0.269447,1.15569 l -0.220461,0.0307 z m 3.331375,-0.0231 v -1.59972 h 1.077794 1.077798 v 0.24495 c 0,0.24087 -0.01307,0.24495 -0.783853,0.24495 h -0.78385 v 0.44092 0.44092 h 0.685869 c 0.666276,0 0.68587,0.007 0.68587,0.24495 0,0.23796 -0.01959,0.24495 -0.68587,0.24495 h -0.685869 v 0.62576 c 0,0.62038 -0.0026,0.62613 -0.293945,0.6689 l -0.293944,0.0431 z m 2.057612,1.56479 c 0,-0.033 0.84973,-2.30123 1.029515,-2.7481 0.149418,-0.37137 0.202349,-0.41641 0.489354,-0.41641 0.215335,0 0.344249,0.0567 0.389621,0.17146 0.225231,0.56953 1.128936,2.96654 1.128936,2.99441 0,0.0185 -0.128787,0.0147 -0.286194,-0.008 -0.202848,-0.0298 -0.320445,-0.1247 -0.403812,-0.32597 -0.114608,-0.27669 -0.135972,-0.28396 -0.834254,-0.28396 h -0.716629 l -0.115152,0.31844 c -0.09374,0.25923 -0.167794,0.31844 -0.398269,0.31844 -0.155714,0 -0.283116,-0.009 -0.283116,-0.0199 z m 2.010662,-1.27837 c -0.03735,-0.0943 -0.157002,-0.40706 -0.265892,-0.69501 -0.108894,-0.28795 -0.229997,-0.48636 -0.269122,-0.44092 -0.0656,0.0762 -0.495834,1.17567 -0.495834,1.26713 0,0.0221 0.247221,0.0403 0.549383,0.0403 0.483769,0 0.541269,-0.0205 0.481465,-0.17147 z m 1.516673,-0.28617 v -1.59997 h 0.247221 c 0.201586,0 0.396032,0.20249 1.053301,1.09687 l 0.80608,1.09688 0.0277,-1.09688 c 0.02763,-1.09331 0.02848,-1.09687 0.269448,-1.09687 h 0.241748 v 1.6031 1.60311 l -0.247792,-0.0474 c -0.177081,-0.0338 -0.477647,-0.35711 -1.053301,-1.13283 l -0.805513,-1.08547 -0.04899,1.12193 c -0.04719,1.0807 -0.05709,1.12221 -0.269447,1.1297 -0.219943,0.008 -0.220458,0.004 -0.220458,-1.5922 z m 4.213205,0.23718 v -1.34725 h -0.538899 c -0.509503,0 -0.5389,-0.0134 -0.5389,-0.24495 v -0.24495 h 1.322753 1.322749 v 0.24495 c 0,0.23159 -0.0294,0.24495 -0.538899,0.24495 h -0.538896 v 1.34725 1.34724 H 72.06587 71.820916 Z m 2.180089,1.32096 c -0.217876,-0.0359 -0.220458,-0.0546 -0.220458,-1.59722 v -1.56089 h 0.293945 0.293945 v 1.56192 c 0,0.85905 -0.03307,1.5778 -0.07349,1.59722 -0.04042,0.0194 -0.172693,0.019 -0.293944,-0.001 z m 1.053301,-1.56592 v -1.59219 h 0.244954 0.244955 v 1.32275 1.32275 h 0.78385 0.783853 v 0.26945 0.26944 H 76.08311 75.054306 Z M 49.775071,66.83338 c 0,-0.0479 0.08531,-0.19122 0.189584,-0.31845 0.164061,-0.20017 0.216639,-0.21482 0.390595,-0.10883 0.268452,0.16356 0.464338,0.15456 0.533052,-0.0245 0.09033,-0.23539 0.375334,-0.18199 0.338813,0.0635 -0.04752,0.31943 -0.311872,0.44395 -0.661943,0.31181 -0.233089,-0.088 -0.315834,-0.0826 -0.406416,0.0266 -0.126376,0.15227 -0.383685,0.18574 -0.383685,0.0499 z M 5.8303584,64.79792 c -0.369744,-0.0971 -0.832843,-0.34845 -0.832843,-0.45201 0,-0.057 0.07182,-0.18296 0.159603,-0.27995 0.153465,-0.16958 0.169045,-0.16894 0.405139,0.0168 0.453682,0.35687 1.394888,0.19521 1.394888,-0.23959 0,-0.2103 -0.315857,-0.41954 -0.914966,-0.60613 -0.742509,-0.23124 -1.088121,-0.61201 -1.008706,-1.11131 0.133839,-0.84147 1.35186,-1.15367 2.169207,-0.55601 0.184667,0.13503 0.185501,0.14901 0.01981,0.3321 -0.171513,0.18952 -0.176232,0.18952 -0.559588,-1.6e-4 -0.427131,-0.21132 -0.830045,-0.15174 -1.021004,0.151 -0.174172,0.27611 0.05053,0.47892 0.811801,0.73267 0.480665,0.16023 0.758383,0.31371 0.866669,0.47897 0.306913,0.46842 0.139385,1.17902 -0.328182,1.39206 -0.297543,0.13557 -0.903571,0.20942 -1.161826,0.14159 z m 4.2891456,-0.0293 c -0.1737916,-0.0413 -0.4281836,-0.14859 -0.5653146,-0.23845 -0.243403,-0.15948 -0.245208,-0.16889 -0.07594,-0.39599 0.158518,-0.21268 0.188009,-0.21956 0.343863,-0.0802 0.2256516,0.2018 1.1040626,0.28587 1.2987416,0.1243 0.08111,-0.0673 0.147478,-0.22609 0.147478,-0.35284 0,-0.25674 -0.225637,-0.40048 -1.053248,-0.67097 -0.5754336,-0.18807 -0.8083996,-0.44375 -0.8083996,-0.88725 0,-0.55788 0.544238,-1.0288 1.1889676,-1.0288 0.314768,0 1.162588,0.34776 1.162588,0.47687 0,0.0371 -0.09231,0.1465 -0.20513,0.2431 -0.191759,0.16419 -0.216897,0.16499 -0.385666,0.0123 -0.220148,-0.19923 -0.804636,-0.22999 -1.017252,-0.0535 -0.3789956,0.31454 -0.08657,0.67701 0.717202,0.88898 0.237547,0.0627 0.557212,0.23921 0.710366,0.39237 0.527046,0.52704 0.270487,1.35345 -0.485352,1.56337 -0.407347,0.11314 -0.521867,0.11393 -0.972904,0.007 z m 34.596261,0.002 c -0.745832,-0.17791 -1.305188,-0.91475 -1.305188,-1.71932 0,-0.44198 0.265504,-1.09192 0.548839,-1.34351 0.247273,-0.21957 0.851526,-0.46929 1.133891,-0.4686 0.321086,7.4e-4 0.88707,0.17059 1.108665,0.33263 0.18508,0.13533 0.185321,0.14435 0.0091,0.33901 -0.166002,0.18343 -0.199705,0.18772 -0.407127,0.0518 -0.273395,-0.17913 -0.915696,-0.20203 -1.212429,-0.0432 -0.527879,0.28251 -0.756209,1.17746 -0.450996,1.76768 0.212788,0.41148 0.522986,0.58897 1.029367,0.58897 0.567814,0 0.881834,-0.21132 0.881834,-0.59345 0,-0.27113 -0.02344,-0.28839 -0.391928,-0.28839 -0.37015,0 -0.391925,-0.0163 -0.391925,-0.29394 v -0.29394 h 0.685869 0.685873 v 0.68088 c 0,0.65389 -0.0127,0.69057 -0.320404,0.92527 -0.260319,0.19855 -1.036744,0.47184 -1.247303,0.43903 -0.02696,-0.004 -0.187232,-0.0406 -0.356192,-0.0809 z M 8.1329244,63.0513 v -1.71468 h 0.293944 0.293945 v 1.71468 1.71468 h -0.293945 -0.293944 z m 5.1930206,0.24495 v -1.46977 h -0.58789 c -0.56176,0 -0.587889,-0.0109 -0.587889,-0.24496 v -0.24495 h 1.420732 1.420733 v 0.24495 c 0,0.2316 -0.02939,0.24496 -0.538899,0.24496 h -0.538898 v 1.46972 1.46973 H 13.619889 13.325945 Z M 15.57952,63.0513 v -1.71468 h 1.175778 1.175778 v 0.24496 c 0,0.24314 -0.0065,0.24495 -0.881834,0.24495 h -0.881833 v 0.48991 0.48991 h 0.764256 c 0.749885,0 0.764256,0.005 0.764256,0.24495 0,0.24035 -0.01437,0.24495 -0.764256,0.24495 h -0.764256 v 0.49686 0.49686 l 0.882059,-0.0314 0.882058,-0.0314 -2.25e-4,0.26945 -2.25e-4,0.26945 H 16.755298 15.57952 Z m 3.037427,-0.006 v -1.72089 l 0.304184,0.0307 c 0.272047,0.0275 0.355504,0.12387 0.789923,0.91254 0.267156,0.48501 0.523885,0.92051 0.570507,0.96778 0.04805,0.0487 0.300431,-0.34382 0.582712,-0.90633 0.488331,-0.97312 0.504547,-0.99227 0.839985,-0.99227 h 0.342043 v 1.71467 1.71468 h -0.29093 -0.290928 l -0.02751,-1.20027 c -0.02018,-0.88018 -0.05364,-1.14801 -0.125492,-1.00431 -0.575931,1.15186 -0.768735,1.42073 -1.018793,1.42073 -0.21921,0 -0.313653,-0.10703 -0.647724,-0.73403 -0.215102,-0.40372 -0.413141,-0.73449 -0.440086,-0.73506 -0.02694,-7.4e-4 -0.0353,0.50612 -0.01856,1.12596 l 0.03043,1.12698 h -0.299877 -0.299876 z m 4.018317,1.6474 c 5.93e-4,-0.0404 0.280843,-0.801 0.622783,-1.69018 l 0.621708,-1.6167 h 0.370846 0.370846 l 0.619368,1.61666 c 0.340652,0.88918 0.621032,1.64976 0.623066,1.69018 0.002,0.0404 -0.125722,0.0735 -0.283904,0.0735 -0.239747,0 -0.308236,-0.0571 -0.411609,-0.34294 l -0.124007,-0.34294 h -0.793476 -0.793476 l -0.124007,0.34294 c -0.103374,0.28587 -0.171863,0.34294 -0.41161,0.34294 -0.158181,0 -0.287119,-0.0331 -0.286528,-0.0735 z m 2.154519,-1.24366 c 0,-0.1063 -0.51885,-1.43006 -0.548781,-1.40012 -0.04044,0.0404 -0.529016,1.33041 -0.529016,1.39675 0,0.0257 0.242505,0.0468 0.538899,0.0468 0.296394,0 0.538898,-0.0195 0.538898,-0.0434 z m 3.135409,-0.39753 v -1.71468 l 0.269449,3.3e-4 0.269449,3.2e-4 0.0228,1.71435 0.0228,1.71436 h -0.292251 -0.292245 z m 1.371742,0 v -1.71468 l 0.269448,0.006 c 0.228689,0.005 0.402845,0.18632 1.151285,1.20028 l 0.881833,1.19468 0.02752,-1.20027 c 0.02744,-1.19746 0.02807,-1.20028 0.265077,-1.20028 h 0.237571 l 0.02885,1.7148 0.02889,1.7148 -0.258475,-1.3e-4 c -0.216195,-1e-4 -0.400524,-0.19102 -1.126788,-1.16713 l -0.868313,-1.16702 -0.02752,1.16702 -0.02752,1.16702 h -0.29093 -0.290926 z m 4.605129,0.24495 V 61.8267 h -0.587889 c -0.561759,0 -0.587889,-0.0109 -0.587889,-0.24496 v -0.24495 h 1.420733 1.420733 v 0.24006 c 0,0.22323 -0.03915,0.24213 -0.558016,0.26945 l -0.558018,0.0294 0.02526,1.44522 0.02526,1.44523 h -0.300085 -0.300084 z m 2.253577,-0.24495 v -1.71468 h 1.126788 1.126788 v 0.24496 c 0,0.24207 -0.0098,0.24495 -0.832843,0.24495 h -0.832844 v 0.48991 0.4899 h 0.734863 c 0.718529,0 0.73486,0.005 0.73486,0.24496 0,0.23951 -0.01633,0.24495 -0.73486,0.24495 h -0.734863 v 0.49686 0.49686 l 0.88206,-0.0314 0.882059,-0.0314 -2.26e-4,0.26945 -2.26e-4,0.26945 H 37.331418 36.15564 Z m 3.037426,0 v -1.71468 h 0.293945 0.293944 v 1.46972 1.46973 h 0.857341 c 0.849171,0 0.857337,0.002 0.857337,0.24495 v 0.24496 h -1.151282 -1.151285 z m 2.939446,0 v -1.71468 h 0.293944 0.293945 v 1.71468 1.71468 h -0.293945 -0.293944 z m 5.22557,0 -0.01463,-1.71468 h 1.166817 1.166816 v 0.24496 c 0,0.24314 -0.0065,0.24495 -0.881834,0.24495 h -0.881833 v 0.48991 0.4899 h 0.783853 c 0.770785,0 0.78385,0.004 0.78385,0.24496 0,0.24087 -0.01307,0.24495 -0.78385,0.24495 h -0.783853 v 0.49581 0.4958 l 0.906327,-0.0205 0.90633,-0.0205 0.031,0.25955 0.031,0.25955 h -1.20769 -1.207692 z m 3.102862,0 v -1.71468 l 0.269448,0.005 c 0.228705,0.004 0.40279,0.185 1.151282,1.19542 l 0.881833,1.19044 0.02751,-1.19543 0.02752,-1.19542 h 0.24194 0.241937 v 1.71468 1.71467 h -0.234712 c -0.186202,0 -0.414022,-0.24226 -1.102291,-1.17218 -0.47717,-0.6447 -0.889625,-1.17388 -0.91657,-1.17596 -0.02696,-0.002 -0.03537,0.5254 -0.01874,1.17218 l 0.03025,1.17596 h -0.299707 -0.299703 z m 4.60513,0.24495 V 61.8267 h -0.587889 c -0.561759,0 -0.587889,-0.0109 -0.587889,-0.24496 v -0.24495 h 1.420732 1.420733 v 0.24495 c 0,0.2316 -0.0294,0.24496 -0.538899,0.24496 h -0.538899 v 1.46972 1.46973 h -0.293945 -0.293944 z m 2.155592,-0.24495 v -1.71468 h 1.175779 1.175778 v 0.24496 c 0,0.24314 -0.0065,0.24495 -0.881834,0.24495 h -0.881834 v 0.48991 0.4899 h 0.783854 c 0.770788,0 0.783853,0.004 0.783853,0.24496 0,0.24087 -0.01307,0.24495 -0.783853,0.24495 h -0.783854 v 0.48991 0.48991 h 0.906331 c 0.901431,0 0.906331,0.001 0.906331,0.24495 v 0.24496 h -1.200275 -1.200276 z m 4.507153,0 v -1.71468 l 0.857337,0.002 c 1.340424,0.003 2.028731,0.44068 2.153108,1.36798 0.174607,1.30179 -0.62944,2.05289 -2.202098,2.05707 l -0.808347,0.002 z m 1.585901,1.12337 c 0.523997,-0.14554 0.863636,-0.59163 0.863636,-1.13434 0,-0.78501 -0.500785,-1.2138 -1.417585,-1.2138 h -0.444063 v 1.22477 1.22477 l 0.318438,-3.7e-4 c 0.175145,-3e-4 0.480951,-0.0457 0.679574,-0.10085 z m 2.215252,-1.12325 0.02885,-1.7148 h 1.122418 1.122419 v 0.24496 c 0,0.24314 -0.0065,0.24495 -0.881834,0.24495 h -0.881836 v 0.48991 0.4899 h 0.783854 c 0.770788,0 0.783853,0.004 0.783853,0.24496 0,0.24087 -0.01307,0.24495 -0.783853,0.24495 h -0.783854 v 0.48991 0.48991 h 0.930824 c 0.927561,0 0.930828,7.4e-4 0.930828,0.24495 v 0.24496 l -1.200276,1.1e-4 -1.200275,1.3e-4 z m -46.26087,-5.7296 c -1.13914,-0.36394 -2.063242,-1.18258 -2.554428,-2.2629 -1.175866,-2.58622 0.27956,-5.59599 2.986789,-6.17659 0.761293,-0.16327 2.181875,-0.0631 2.868418,0.20219 1.105577,0.42727 2.100656,1.4812 2.474529,2.62089 0.264616,0.80664 0.245669,2.13282 -0.04171,2.91943 -0.475606,1.30184 -1.501614,2.3137 -2.731122,2.69345 -0.838488,0.25898 -2.197902,0.26058 -3.002475,0.004 z m 2.367004,-1.53381 c 1.388538,-0.44845 2.102806,-2.01788 1.641131,-3.60599 -0.452329,-1.55595 -2.308631,-2.26696 -3.799753,-1.45539 -1.228911,0.66886 -1.714119,2.46041 -1.029741,3.80214 0.331971,0.65084 0.735939,1.01594 1.364191,1.23293 0.648466,0.22398 1.188027,0.23176 1.824172,0.0263 z m 16.694468,1.57456 c -1.352008,-0.36388 -2.34869,-1.31905 -2.834729,-2.71666 -0.216573,-0.62275 -0.240366,-0.82341 -0.201434,-1.69878 0.03948,-0.8878 0.08139,-1.07104 0.396832,-1.73527 0.789052,-1.66152 2.250702,-2.49783 4.183989,-2.39394 0.965842,0.0519 1.685041,0.28289 2.495991,0.80165 l 0.563218,0.36028 -0.24074,0.31218 c -0.13241,0.17169 -0.390003,0.43219 -0.572432,0.57889 l -0.331692,0.26671 -0.720772,-0.35908 c -0.625866,-0.31181 -0.812943,-0.35929 -1.420733,-0.36063 -0.848616,-0.002 -1.323404,0.21567 -1.899784,0.87047 -0.468249,0.53196 -0.666468,1.14704 -0.648952,2.01371 0.02155,1.06671 0.461524,1.82864 1.333951,2.31014 0.457969,0.25276 0.606806,0.28355 1.347668,0.27878 0.629777,-0.004 0.946322,-0.0562 1.298256,-0.21383 l 0.465412,-0.20848 v -0.64239 -0.64239 h -1.028805 -1.028807 v -0.73486 -0.73486 h 1.861651 1.861648 v 1.70452 1.70453 l -0.347179,0.30483 c -0.463279,0.40676 -1.346197,0.84137 -1.984706,0.97695 -0.700135,0.14867 -1.91276,0.12846 -2.547851,-0.0425 z m 8.750006,0.0205 c -1.167265,-0.38562 -1.888248,-1.07129 -2.205083,-2.09708 -0.176326,-0.57087 -0.195486,-0.91247 -0.19569,-3.48848 l -2.26e-4,-2.85564 0.88206,0.0314 0.882059,0.0314 v 2.71729 c 0,2.70111 0.0015,2.72021 0.24464,3.20822 0.273258,0.54836 0.731016,0.86931 1.390215,0.97471 0.507043,0.0811 1.386337,-0.16617 1.671882,-0.47011 0.479018,-0.5099 0.514543,-0.76403 0.514543,-3.68106 0,-1.50166 0.01818,-2.74867 0.04039,-2.77112 0.02222,-0.0224 0.43006,-0.0269 0.906327,-0.01 l 0.865943,0.031 0.02322,1.79434 c 0.03248,2.51053 -0.08909,4.20299 -0.343123,4.77729 -0.299385,0.6768 -0.909642,1.28278 -1.615468,1.60412 -0.52796,0.24036 -0.753613,0.28242 -1.640942,0.30586 -0.660262,0.0174 -1.169205,-0.0192 -1.420733,-0.10231 z M 2.28e-4,53.16121 0,48.94208 l 0.808576,0.0344 0.808577,0.0344 1.789408,2.4151 c 0.9841754,1.3283 1.8880554,2.53887 2.0086224,2.69014 l 0.219212,0.27505 v -2.70886 -2.70885 l 0.859516,-1.4e-4 0.859515,-1.4e-4 1.9e-4,4.19762 1.89e-4,4.19761 -0.776086,0.0317 -0.776086,0.0317 -0.710514,-0.96248 C 2.471364,52.92054 1.807475,52.03508 1.764125,52.03196 c -0.02694,-0.002 -0.04899,1.19799 -0.04899,2.66651 v 2.67003 l -0.857338,0.006 -0.857339,0.006 z m 9.1778324,4.19095 c -0.03593,-0.0359 -0.06532,-1.93066 -0.06532,-4.21051 v -4.14519 l 3.0864686,-0.0272 3.086469,-0.0272 -5.1e-5,0.80835 -5.1e-5,0.80834 h -2.204584 -2.204585 v 0.93083 0.93082 h 1.992094 1.992094 l -0.0077,0.73486 -0.0077,0.73487 h -1.98441 -1.984409 l -8.2e-5,0.95531 -8.3e-5,0.95533 2.253658,-0.028 2.253658,-0.028 v 0.83636 0.83636 h -3.070058 c -1.688548,0 -3.0994816,-0.0294 -3.1354086,-0.0653 z m 17.3751616,-4.16593 -2.29e-4,-4.24415 0.830881,0.0316 0.830881,0.0316 1.056767,1.43809 c 2.446241,3.32895 2.820283,3.82915 2.866874,3.83385 0.02696,0.003 0.03596,-1.18238 0.02003,-2.63357 l -0.02896,-2.6385 0.886522,-0.0316 0.886518,-0.0316 -2.25e-4,4.2452 -2.26e-4,4.2452 -0.775444,-0.032 -0.775447,-0.032 -1.87842,-2.53681 C 29.439615,53.4363 28.571326,52.2348 28.543216,52.16155 28.370592,51.71169 28.317109,52.31277 28.317109,54.7027 v 2.67434 l -0.881834,0.0266 -0.881833,0.0266 z m 26.20553,4.08428 c 0.02552,-0.0539 0.753509,-1.79551 1.617753,-3.87027 0.864243,-2.07476 1.636791,-3.91559 1.716766,-4.09073 l 0.145411,-0.31844 h 0.932409 c 0.512825,0 0.961517,-0.003 0.99709,-0.007 0.03559,-0.004 0.339017,0.64672 0.674315,1.44523 0.459243,1.09366 2.54824,6.11293 2.847124,6.84081 0.02496,0.0608 -0.325222,0.10395 -0.923006,0.11369 l -0.963235,0.0157 -0.326788,-0.87507 -0.326789,-0.87507 -1.913001,0.0265 -1.913,0.0265 -0.323145,0.83285 -0.323141,0.83284 h -0.982584 c -0.620663,0 -0.96549,-0.0361 -0.936179,-0.098 z m 5.608582,-3.50284 c -0.0719,-0.17514 -0.348064,-0.85778 -0.613701,-1.51697 -0.265637,-0.6592 -0.505022,-1.19854 -0.531967,-1.19854 -0.02696,0 -0.266329,0.53934 -0.531963,1.19854 -0.265637,0.65919 -0.541802,1.34183 -0.6137,1.51697 l -0.130725,0.31844 h 1.276388 1.276392 z m 4.43928,-0.55694 v -4.21966 h 2.298892 c 2.605374,0 3.048429,0.0892 3.795876,0.76451 0.629347,0.56858 0.810387,1.00993 0.811754,1.97897 0.0011,0.74979 -0.02896,0.88659 -0.301011,1.37175 -0.270503,0.48238 -0.900535,1.04876 -1.336706,1.20165 -0.08067,0.0283 0.230182,0.56673 0.879538,1.5235 0.552371,0.81388 1.004326,1.49266 1.00434,1.50841 2.6e-5,0.0229 -1.50143,0.0118 -1.9117,-0.0141 -0.05446,-0.003 -0.47333,-0.59934 -0.930828,-1.32423 l -0.831811,-1.31797 -0.857336,-0.005 -0.857341,-0.005 v 1.35159 1.35159 l -0.881834,0.0266 -0.881833,0.0266 z m 4.501109,-0.28347 c 0.616941,-0.33087 0.860825,-1.12148 0.522586,-1.69407 -0.30154,-0.51047 -0.815724,-0.67442 -2.115183,-0.67442 h -1.144845 v 1.27377 1.27376 h 1.201805 c 0.976814,0 1.264297,-0.0335 1.535637,-0.17904 z m 3.960706,4.34322 c -0.02066,-0.0539 -0.02607,-1.94208 -0.012,-4.19595 l 0.02559,-4.09794 2.193373,0.0107 c 1.916804,0.009 2.266801,0.0354 2.775692,0.20684 0.748258,0.25207 1.201706,0.54255 1.711216,1.09621 0.77476,0.84189 1.0657,1.7573 0.99381,3.12691 -0.0918,1.74996 -1.16334,3.13757 -2.858021,3.70122 -0.519668,0.17284 -0.891922,0.20393 -2.697465,0.22528 -1.3296,0.0157 -2.108332,-0.011 -2.132192,-0.0732 z m 4.503146,-1.75358 c 0.819138,-0.40682 1.336684,-1.20209 1.414686,-2.17383 0.08762,-1.09155 -0.336962,-1.93929 -1.235953,-2.46778 -0.419743,-0.24675 -0.55233,-0.2702 -1.707208,-0.30193 l -1.252124,-0.0344 0.02111,2.61403 0.02111,2.61403 1.182037,-0.0321 c 0.91654,-0.0249 1.266119,-0.0739 1.556375,-0.21801 z M 37.723343,43.81365 C 34.195138,42.03496 31.775127,40.29505 29.047376,37.57591 26.458713,34.99543 24.853683,32.7967 23.104555,29.43486 20.719131,24.85005 19.326417,19.38291 18.913876,12.98422 18.728545,10.10966 18.836516,5.52215 19.095596,5.26307 19.162806,5.19587 19.81951,5.12252 20.74412,5.07898 26.845421,4.79168 32.528488,3.36746 37.869206,0.78729 38.765505,0.35428 39.56059,0 39.636062,0 c 0.07547,0 0.66692,0.26491 1.314332,0.58869 5.269349,2.63529 11.46449,4.23922 17.284101,4.47488 1.245892,0.0505 1.592089,0.0955 1.756535,0.22868 0.197645,0.16005 0.206367,0.26903 0.249276,3.1157901 0.07711,5.1149999 -0.321404,8.9972299 -1.356208,13.2121399 -1.480029,6.02835 -4.170617,11.05497 -8.323555,15.55025 -1.419366,1.53637 -4.026428,3.64526 -6.173658,4.99396 -1.57514,0.98936 -4.436973,2.41758 -4.841215,2.41605 -0.182248,-7.4e-4 -0.910686,-0.3072 -1.822327,-0.76679 z m 3.001094,-2.41638 c 4.872473,-2.60195 8.467544,-5.81951 11.382053,-10.18686 1.02816,-1.54068 2.448333,-4.32389 3.137739,-6.14923 1.693295,-4.48337 2.565326,-9.72166 2.565326,-15.4099099 v -2.09109 l -0.612382,-0.0559 c -2.334503,-0.21314 -3.051754,-0.3003 -4.531646,-0.55074 C 48.759506,6.29254 44.435238,4.95974 40.800212,3.29648 L 39.616202,2.75472 38.0084,3.47047 c -3.839304,1.70915 -7.702371,2.87222 -11.699903,3.5225301 -1.326379,0.21578 -2.325415,0.33428 -4.277729,0.50742 l -0.652413,0.0579 -0.06648,0.99747 c -0.08349,1.25261 0.09005,4.7610099 0.349463,7.0649999 0.794597,7.05733 2.950736,12.64436 6.789699,17.59359 1.534045,1.97771 4.196551,4.48069 6.381855,5.99947 1.431083,0.99461 4.466976,2.72231 4.7836,2.72231 0.05441,0 0.552986,-0.24247 1.107946,-0.53882 z m -1.923296,-3.61303 c -0.438134,-0.16099 -1.913167,-0.98248 -2.31655,-1.29015 -0.327381,-0.2497 -0.720876,-0.95216 -0.720876,-1.28688 0,-0.11012 0.132272,-0.4481 0.293944,-0.75107 0.161669,-0.30296 0.293945,-0.61567 0.293945,-0.69492 0,-0.0792 0.177515,-0.7031 0.394473,-1.38636 0.361106,-1.13719 0.417681,-1.60867 0.193031,-1.60867 -0.04684,0 -0.209211,0.23114 -0.360829,0.51363 -0.237822,0.44312 -0.36732,0.56023 -0.9433,0.85309 -0.59274,0.30137 -0.772992,0.34406 -1.606794,0.38053 -1.72451,0.0754 -3.029098,-0.41821 -4.203332,-1.59047 -2.282713,-2.27886 -2.271622,-5.93831 0.02896,-9.55123 1.689851,-2.65382 4.276019,-4.79981 6.644777,-5.51382 1.280125,-0.38586 1.420733,-0.64953 1.420733,-2.66422 0,-1.77246 0.128321,-2.31838 0.823078,-3.5015899 0.537659,-0.91567 1.309617,-1.6372 2.243285,-2.09675 2.402688,-1.18261 5.02821,-0.60854 7.358373,1.60889 1.369202,1.3029599 2.070285,2.7718199 2.060579,4.3171999 -0.0086,1.36452 -0.440438,2.3599 -1.510463,3.48133 -0.561637,0.58861 -0.612171,0.70081 -0.734282,1.63019 -0.07116,0.54162 -0.240973,0.71457 -0.625988,0.63757 -0.25449,-0.0509 -0.298299,-0.018 -0.463367,0.34806 -0.198938,0.44117 -0.491646,0.76155 -0.695772,0.76155 -0.140997,0 -0.954473,0.45915 -1.488751,0.84029 -0.18311,0.13063 -0.457142,0.23751 -0.608956,0.23751 -0.444082,0 -1.164854,-0.28582 -1.870921,-0.74191 -0.36147,-0.23349 -0.78952,-0.49295 -0.951222,-0.57657 -0.215784,-0.11159 -0.424554,-0.4061 -0.78469,-1.10696 -0.589715,-1.14765 -0.982121,-1.65233 -1.215196,-1.56289 -0.230693,0.0885 -0.203974,0.32364 0.07894,0.69456 0.588215,0.77119 1.146438,2.27739 1.724462,4.65297 l 0.104235,0.42838 0.458416,-0.0634 c 0.252128,-0.0349 0.964501,-0.0909 1.58305,-0.12459 1.01722,-0.0554 1.169475,-0.0888 1.594111,-0.35008 1.158714,-0.71297 2.323293,-0.38243 2.683974,0.76178 0.145526,0.46166 0.150092,0.58305 0.0357,0.9492 -0.205044,0.65635 -0.462812,1.02133 -0.851597,1.20583 -0.321852,0.15273 -0.427731,0.15682 -1.044502,0.0404 -0.678266,-0.12798 -0.691624,-0.12637 -1.134517,0.13642 -1.351049,0.80166 -2.329567,1.10598 -3.289635,1.02307 -0.356551,-0.0308 -0.651692,-0.14681 -1.084249,-0.42623 -0.326889,-0.21115 -0.830707,-0.47209 -1.119597,-0.57987 -0.470448,-0.17552 -0.615211,-0.30842 -1.387403,-1.27376 -0.785039,-0.9814 -1.846728,-2.78063 -1.846728,-3.12963 0,-0.19414 -0.308161,-0.27851 -0.460575,-0.12609 -0.110464,0.11046 -0.107072,0.20203 0.02092,0.56482 0.329492,0.93388 1.287002,2.47537 2.067074,3.32778 l 0.224168,0.24495 -0.880663,-0.0344 c -0.907224,-0.0354 -2.677483,0.12724 -3.089509,0.28389 -0.272884,0.10375 -0.315594,0.45453 -0.06151,0.50516 0.09431,0.0188 0.546246,-0.0261 1.004307,-0.0998 0.53307,-0.0858 1.273689,-0.11751 2.057612,-0.0882 1.066048,0.0398 1.332703,0.0858 2.057612,0.35478 1.17586,0.43631 1.672028,0.82801 2.068182,1.63271 0.270762,0.55 0.328655,0.79024 0.362869,1.50585 0.03596,0.75193 0.0066,0.9503 -0.25078,1.69711 -0.269221,0.78107 -0.780565,1.69943 -1.486276,2.66932 -0.51078,0.70199 -0.499374,0.77071 0.240996,1.45184 1.218443,1.12096 1.564718,1.77338 1.143534,2.15455 -0.478722,0.43324 -1.476707,0.58236 -2.176505,0.32523 z m 8.562744,-20.91967 c 0.159691,-0.17645 0.152203,-0.18692 -0.177893,-0.24885 -0.388873,-0.073 -0.938256,-0.48903 -0.938256,-0.7106 0,-0.22057 -0.240381,-0.0967 -0.275602,0.14197 -0.04341,0.29421 0.139512,0.58939 0.502314,0.8106 0.393658,0.24003 0.67646,0.24222 0.889437,0.007 z M 40.62402,15.53876 c 0.02918,-0.0761 -0.06415,-0.3154 -0.207422,-0.53189 -0.474167,-0.71651 -0.421322,-1.54837 0.125695,-1.97865 0.336024,-0.26432 0.732986,-0.24174 1.09424,0.0622 0.166668,0.14024 0.368365,0.22976 0.448437,0.19903 0.238285,-0.0914 0.166005,-0.41926 -0.151304,-0.68626 -1.131857,-0.95239 -2.706749,0.28727 -2.356015,1.85451 0.137738,0.61547 0.532829,1.2193 0.797804,1.2193 0.107527,0 0.219383,-0.0622 0.248565,-0.13828 z m 1.214547,19.76953 c -0.19572,-0.0782 -0.826981,-0.68043 -1.193417,-1.13862 l -0.294959,-0.36881 0.291901,-0.46403 c 0.705244,-1.12112 1.111793,-2.10625 1.256746,-3.04526 l 0.06571,-0.42564 0.321315,1.06102 c 0.468353,1.54652 0.753572,1.71554 2.285658,1.35439 0.561837,-0.13244 0.650141,-0.13205 0.85734,0.004 0.690306,0.45231 -0.216391,1.76192 -1.819223,2.62765 -0.662584,0.35788 -1.434013,0.53019 -1.771067,0.3956 z"
       id="path1" /></g></svg>
